<?xml version="1.0" encoding="utf-8"?>
<!-- Generator: Adobe Illustrator 26.3.0, SVG Export Plug-In . SVG Version: 6.00 Build 0)  -->
<svg version="1.1" id="Layer_1" xmlns="http://www.w3.org/2000/svg" xmlns:xlink="http://www.w3.org/1999/xlink" x="0px" y="0px"
	 viewBox="0 0 300 300" style="enable-background:new 0 0 300 300;" xml:space="preserve">
<style type="text/css">
	.st0{fill:#FFFFFF;stroke:#FFFFFF;}
</style>
<path class="st0" d="M22.6,249.1l0,21.2c0,3.3,2.6,6,5.9,6.1l0.2,0l15.4,0l0,2.6H28.7c-4.8,0-8.7-3.9-8.7-8.7v-21.2L22.6,249.1
	L22.6,249.1z M277.4,249.1h2.6v21.2c0,4.8-3.9,8.7-8.7,8.7h-15.4v-2.6l15.4,0c3.3,0,6-2.6,6.1-5.9l0-0.2L277.4,249.1L277.4,249.1z
	 M280,27.7v19.3h-2.6l0-19.3c0-3.3-2.6-6-5.9-6.1l-0.2,0l-15.4,0V19h15.4C276.1,19,280,22.9,280,27.7C280,27.7,280,27.7,280,27.7z
	 M44.1,19v2.6l-15.4,0c-3.3,0-6,2.6-6.1,5.9l0,0.2l0,19.3H20V27.7c0-4.8,3.9-8.7,8.7-8.7l0,0C28.7,19,44.1,19,44.1,19z"/>
</svg>
